<?xml version="1.0" encoding="utf-8"?>
<!-- Generator: Adobe Illustrator 12.0.0, SVG Export Plug-In  -->
<!DOCTYPE svg PUBLIC "-//W3C//DTD SVG 1.1//EN" "http://www.w3.org/Graphics/SVG/1.1/DTD/svg11.dtd" [
	<!ENTITY ns_flows "http://ns.adobe.com/Flows/1.0/">
	<!ENTITY ns_svg "http://www.w3.org/2000/svg">
	<!ENTITY ns_xlink "http://www.w3.org/1999/xlink">
]>
<svg  version="1.1" xmlns="&ns_svg;" xmlns:xlink="&ns_xlink;" xmlns:a="http://ns.adobe.com/AdobeSVGViewerExtensions/3.0/"
	 width="54" height="91" viewBox="-0.839 -0.548 54 91" enable-background="new -0.839 -0.548 54 91" xml:space="preserve">
<defs>
</defs>
<path stroke="#000000" stroke-linecap="round" stroke-linejoin="round" d="M21.243,60.314c0.708-3.809,2.557-7.387,3.172-11.187
	c0.457-2.819,3.244-8.283,2.073-10.929c-1.671-3.776-9.95,0.963-12.668,1.383c-3.278,0.505-7.936,0.252-10.929-0.96
	c-3.095-1.253-3.221-5.808-0.164-7.387c2.849-1.472,6.79-2.014,9.868-2.786c2.316-0.581,5.25-0.165,7.604-0.006
	c1.338,0.091,2.335,0.599,3.618,0.691c-0.99-0.072-1.181-9.521-1.263-10.522c-0.351-4.198-0.236-8.413,2.125-12.067
	c2.036-3.153,4.493-5.715,8.612-5.961c1.696-0.102,3.698-0.177,5.261,0.211c1.596,0.397,3.229,1.671,4.682,2.38
	c1.828,0.892,3.393,1.847,4.674,3.523c1.827,2.396,3.023,5.642,3.734,8.453c0.372,1.467,1.188,5.01-0.47,6.008
	c-2.172,1.307-5.854-3.672-6.767-5.08c-2.095-3.235-4.848-7.649-9.386-5.152c-3.319,1.823-0.954,6.275-1.102,9.285
	c-0.132,2.72-0.53,5.222-0.389,7.984c4.395,0.994,8.653,0.213,12.995,1.984c2.803,1.144,7.897,4.104,5.341,7.766
	c-1.558,2.229-6.959,1.611-9.504,1.483c-1.622-0.081-3.564-0.548-5.228-0.175c-3.705,0.83-3.579,3.735-4.055,6.712
	c-0.235,1.473-0.715,3.095-0.86,4.627c-0.324,3.442-1.225,6.513-1.045,10.143c0.186,3.681-0.088,7.01-0.627,10.56
	c-0.525,3.457-0.212,7.11-0.634,10.545c-0.226,1.829-2.299,5.746-3.799,6.855c-2.361,1.745-4.843,0.286-6.173-1.981
	c-2.09-3.566-1.209-9.695-0.375-13.536C20.471,69.009,20.458,64.535,21.243,60.314z"/>
</svg>
