<?xml version="1.0" encoding="utf-8"?>
<!-- Generator: Adobe Illustrator 12.0.0, SVG Export Plug-In  -->
<!DOCTYPE svg PUBLIC "-//W3C//DTD SVG 1.1//EN" "http://www.w3.org/Graphics/SVG/1.1/DTD/svg11.dtd" [
	<!ENTITY ns_flows "http://ns.adobe.com/Flows/1.0/">
	<!ENTITY ns_svg "http://www.w3.org/2000/svg">
	<!ENTITY ns_xlink "http://www.w3.org/1999/xlink">
]>
<svg  version="1.1" xmlns="&ns_svg;" xmlns:xlink="&ns_xlink;" xmlns:a="http://ns.adobe.com/AdobeSVGViewerExtensions/3.0/"
	 width="87" height="85" viewBox="-0.167 -0.632 87 85" enable-background="new -0.167 -0.632 87 85" xml:space="preserve">
<defs>
</defs>
<path fill="none" stroke="#000000" stroke-width="2" stroke-linecap="round" stroke-linejoin="round" d="M1.167,9.535
	c1.832-2.325,6.512-2.2,9.11-3.213c1.938-0.756,3.86-1.791,5.89-2.324c2.382-0.625,4.77-0.94,7.182-1.43
	c8.847-1.795,18.327-0.624,27.327-1.366c5.509-0.455,10.866,0,16.324,0c1.594,0,2.721,0.166,4.176,0.513
	c2.821,0.673,4.981,1.434,7.486,3.121c3.792,2.554,5.216,6.945,5.979,11.23c0.703,3.94,0.474,8.134,0.935,12.121
	c0.393,3.396,0.091,7.088,0.091,10.515c0,2.767,0.133,5.57,0,8.333c-0.131,2.731-0.701,5.343-0.834,8.167
	c-0.142,3.011-0.539,6.001-0.881,8.994c-0.306,2.675-0.208,5.617-0.911,8.178c-1.038,3.777-2.296,8.648-6.708,9.661
	c-7.057,1.62-14.872,1.096-22.062,1.024c-8.943-0.088-17.831-2.017-26.771-2.395c-4.314-0.182-8.269-0.288-12.537-0.922
	c-3.648-0.542-5.061-3.789-5.819-7C8.041,68.067,7.3,63.247,6.329,58.535c-0.871-4.227-1.47-8.563-2.121-12.837
	c-0.285-1.869-0.175-3.914-0.375-5.831c-0.367-3.53-0.428-6.995-0.996-10.503C1.898,23.563,1,18.121,1,12.202"/>
<path fill="none" stroke="#000000" stroke-width="2" stroke-linecap="round" stroke-linejoin="round" d="M76.037,15.702
	c0.52,5.937-11.397,3.321-10.213-3.167c0.467-2.559,3.938-4.646,6.177-3.175C74.459,10.975,75.782,12.794,76.037,15.702z"/>
<path fill="none" stroke="#000000" stroke-width="2" stroke-linecap="round" stroke-linejoin="round" d="M23.167,24.868
	c5.343,0,10.735-0.352,16.004-0.87c2.969-0.292,6.233-0.685,8.979-1.102c2.781-0.422,7.174-1.305,10.033-0.532
	c2.621,0.708,1.911,5.384,2.146,7.679c0.433,4.215,0.616,8.407,1.208,12.622c0.236,1.685,0.13,3.598,0.13,5.371
	c0,1.841-0.247,3.527-0.022,5.347c0.175,1.42,0.693,3.688-0.66,4.817c-1.655,1.381-5.208,0.502-7.151,0.502
	c-2.687,0-5.278-0.093-7.87-0.329c-3.161-0.289-6.308,0.088-9.457,0.333c-1.57,0.122-3.139,0.102-4.706,0.19
	c-0.962,0.054-2.305,0.512-3.214,0.24c-1.215-0.362-1.854-4.813-2.04-5.972c-0.235-1.469-0.396-3.013-0.537-4.464
	c-0.36-3.718-1.319-7.123-1.851-10.833c-0.273-1.906,0.061-3.776-0.059-5.666c-0.104-1.638-0.613-3.153-0.433-4.834"/>
</svg>
