<?xml version="1.0" encoding="utf-8"?>
<!-- Generator: Adobe Illustrator 12.0.0, SVG Export Plug-In . SVG Version: 6.00 Build 51448)  -->
<!DOCTYPE svg PUBLIC "-//W3C//DTD SVG 1.1//EN" "http://www.w3.org/Graphics/SVG/1.1/DTD/svg11.dtd" [
	<!ENTITY ns_svg "http://www.w3.org/2000/svg">
	<!ENTITY ns_xlink "http://www.w3.org/1999/xlink">
]>
<svg  version="1.1" id="レイヤー_1" xmlns="&ns_svg;" xmlns:xlink="&ns_xlink;" width="584" height="750"
	 viewBox="-0.5 -1.5 584 750" overflow="visible" enable-background="new -0.5 -1.5 584 750" xml:space="preserve">
<path opacity="0.6" fill="#9FA0FF" enable-background="new    " d="M0,0l484-0.667C484-0.667,350.479,57,283.154,152
	s-70.459,153.018-95.685,234.59C161.341,473.009,118,524,91.938,561.5c-42.335,42.579-71.511,61.078-90.333,69.578
	C3.053,596.078,0,0,0,0z"/>
<path opacity="0.6" fill="#9FBCFF" enable-background="new    " d="M1.751,0h391.245c0,0-90.865,62-124.657,116.5
	c-33.794,54.5-50.314,111-52.568,125c-2.252,14-26.283,155-30.038,170.5c-3.754,15.5-19.636,112.583-47.31,155.5
	c-30.823,44.079-47.29,60.576-72.821,86.076S1.106,688.075,1.106,688.075L1.751,0z"/>
</svg>
