<?xml version="1.0" encoding="utf-8"?>
<!-- Generator: Adobe Illustrator 12.0.0, SVG Export Plug-In  -->
<!DOCTYPE svg PUBLIC "-//W3C//DTD SVG 1.1//EN" "http://www.w3.org/Graphics/SVG/1.1/DTD/svg11.dtd" [
	<!ENTITY ns_flows "http://ns.adobe.com/Flows/1.0/">
	<!ENTITY ns_svg "http://www.w3.org/2000/svg">
	<!ENTITY ns_xlink "http://www.w3.org/1999/xlink">
]>
<svg  version="1.1" xmlns="&ns_svg;" xmlns:xlink="&ns_xlink;" xmlns:a="http://ns.adobe.com/AdobeSVGViewerExtensions/3.0/"
	 width="98" height="421" viewBox="-0.765 -0.815 98 421" enable-background="new -0.765 -0.815 98 421" xml:space="preserve">
<defs>
</defs>
<g>
	<g>
		<path fill="none" d="M33.792,14.432C39.094,7.376,43.997-4.202,55.09,2.636c16.54,10.198,26.206,32.942,28.361,50.107
			c2.092,16.665,3.784,34.769,3.784,51.601c0,18.5,2.762,37.006,0.665,55.371c-2.818,24.671,1.335,49.894,1.335,74.633
			c0,19.677,2.411,39.14,3.5,58.833c1.507,27.259,3.451,54.773,0.535,82.004c-2.111,19.718-8.403,43.551-35.52,43.335
			c-17.814-0.142-34.898-12.892-38.664-28.756c-2.06-8.678-4.172-17.611-5.169-26.631c-2.138-19.334-6.016-37.527-6.016-57.751
			c0-20.704-2.667-39.72-2.667-60.198c0-21.924-5.164-43.051-2.667-65.004c1.125-9.89,3.333-19.145,3.333-29.597
			c0-32.754,1.561-64.424,6.651-96.797c2.063-13.123,7.829-20.2,15.497-31.264C29.442,20.512,31.476,17.514,33.792,14.432z"/>
		<g>
			<path d="M34.614,12.354c-1.862,2.728,1.256-1.29-1.163,1.821C33.614,13.74,33.926,13.185,34.614,12.354z"/>
			<path d="M27.089,23.243C21.375,32.145,12.64,44.05,12.307,56.226c-0.166,1.371-0.363-0.411-0.707,2.675
				c-1.147,11.34-3.407,29.116-4.698,42.945l-0.056-0.845c-0.268,2.63-0.024,5.88-0.239,8.671c-0.079,0.015-0.063-0.902-0.205-0.262
				c0.206,0.716-0.186,5.062-0.025,6.257c-0.132,1.101-0.315,0.987-0.471,2.411l0.21,1.612c0.441,4.471-0.382,10.813-0.161,16.9
				c-0.057-0.295-0.093-0.899-0.164-0.417c0.284,9.745,0.441,22.006-1.414,32.805c-0.029-0.443-0.141-0.864-0.342-0.25
				c0.208,0.575-0.255,3.916-0.573,6.817c-0.458,1.269-0.482,4.987-0.801,8.383l-0.043-0.298c0.151,2.538-0.521,3.726-0.165,5.79
				l-0.235,1.602c0.412,1.109-0.242,3.659-0.015,5.749l0.081-0.07c0.192,1.964,0.035,2.996,0.191,4.822l-0.039,0.176
				c0.262,4.273,0.368,6.768,0.638,6.639c-0.135,1.52-0.451-4.133-0.633-1.751c1.447,14.019,3.236,28.51,3.095,42.742
				c-0.105,1.611-0.128,2.641-0.244,3.005c0.098,1.417,0.267,5.341,0.477,6.619c-0.023-0.477-0.132,0.924-0.107,1.676
				c0.027,2.584,0.513,2.799,0.531,5.638c-0.149-1.122-0.274-1.501-0.372-1.113c0.376,2.398,0.561,5.63,0.828,8.479
				c-0.083-0.439-0.16-1.126-0.253-1.014c0.489,3.105,0.315,5.699,0.674,8.422l-0.251-1.009c0.063,4.419,0.479,1.274,0.568,5.094
				c-0.11-0.912-0.164-0.585-0.249-0.744c0.57,3.533,0.713,9.298,0.95,12.846c-0.034-0.212-0.083-0.152-0.083-0.152
				c0.136,3.868,0.046,7.931,0.311,12.169c-0.046,1.549-0.462-0.495-0.301,3.599c0.358-0.165,0.594,6.925,0.859,4.493
				c0.103,3.488,0.589,9.003,0.957,11.302c-0.329-1.544-0.246,1.742-0.626-1.143l0.041,2.211c-0.19-0.309-0.221-2.254-0.327-1.537
				c0.194,1.446,0.841,5.647,0.952,6.947c0.596,2.648,1.331,5.048,1.995,9.368c-0.43-2.015-0.243,1.213-0.5-0.159l1.548,5.942
				c0.213,1.438-0.248,0.351,0.131,2.423c0.083-0.118,0.267,0.783,0.432,1.404c0.056,0.545,0.845,6.001,0.559,6.672
				c-0.064,0.658-0.361-2.345-0.297-0.729c0.327,2.663,0.454,2.773,0.836,5.426l-0.042,0.059c0.19,1.759,0.872,5.137,0.807,3.205
				c-0.158-1.219-0.153,0.495-0.299-1.324c0.336,1.208,0.934,4.255,1.449,6.882c-0.225-0.887-0.3-0.76-0.469-1.101
				c0.897,3.49,1.85,7.185,2.844,11.085c0.185,0.022-0.657-1.393-0.686-1.992c0.951,5.134,2.51,10.319,4.25,14.091
				c-0.345-0.597,0.052-0.436,0.029-0.373c1.072,2.161,0.854,2.169,1.781,3.457c-0.071,0.24,1.136,1.643,2.198,2.878
				c0.595,0.601,0.204,0.383-0.674-0.735c1.271,1.929,7.943,8.164,12.624,10.662c-0.066-0.08,3.015,1.177,4.106,1.651l-0.524,0.028
				c0.965,0.547,3.752,1.487,3.905,1.667c2.418,0.898-9.284-3.568-5.967-2.448c0.71,0.649,4.582,1.654,3.781,1.627
				c2.26,0.905,4.593,1.278,6.802,1.957c-0.641-0.181-1.994-0.119-0.069,0.293c3.419,0.57,0.991,0.063,3.773,0.402
				c0.583,0.053,1.172,0.013,1.755,0.023c0.123-0.182,3.067,0.131,1.796-0.126c0.427,0.163,4.967-0.354,4.652,0.032l-0.453,0.313
				c1.495-0.136,2.379-0.685,3.498-0.974c0.199-0.008,0.594-0.017,0.53,0.042c0.157-0.357,3.422-0.888,4.927-1.829
				c2.955-0.961,6.719-3.855,7.896-4.727c1.664-1.7,2.942-3.448,4.524-5.642c-0.275,0.467-0.687,1.079-0.698,1.262
				c1.065-1.341,1.293-1.702,1.961-3.13c-0.088,0.361,1.913-2.864,2.76-4.621c0.801-2.273,0.218-1.608,0.188-1.88
				c1.243-1.891,1.847-6.51,2.79-9.112c-0.132,0.826-0.598,3.486-0.03,1.551c0.95-2.061,0.671-4.424,1.41-7.91l-0.49,0.809
				c0.493-1.534,0.514-5.227,0.824-4.822c0.047-1.196,0.533-4.194,0.148-3.832c0.916-5.833,0.829-14.289,1.607-17.884
				c-0.028-0.848,0.05-2.959-0.135-2.53c-0.223,1.399,0.121,1.967-0.038,2.486c0.017-0.76-0.09-0.926-0.134-1.009
				c0.108-1.829,0.155-3.273,0.425-1.534c0.263-4.08-0.503-4.219-0.366-9.41c0.15,0.235,0.201-0.159,0.16-1.68l-0.285-2.88
				c0.02-3.357,0.313-1.915,0.561-2.001c-0.047-1.796-0.111-3.992-0.325-4.806l0.243-2.19c-0.175,1.601-0.197-1.475-0.285-2.314
				l0.087,0.841c0.096-0.331-0.036-2.41-0.1-3.464c-0.146,0.262-0.142,2.383-0.149,3.539c-0.139-0.911-0.159-2.341-0.326-3.554
				c0.271,0.395,0.046-2.934,0.006-4.359c-0.022-1.64-0.304-1.839-0.317-2.315c0.125-0.049-0.102-2.672,0.135-1.405
				c0.066,0.557-0.064,1.281,0.089,2.2c0.045-1.082,0.271-0.968,0.007-3.204c-0.202-1.679-0.453,0.458-0.463-2.746
				c0.105,0.834,0.213,0.983,0.33,1.634l-0.031-3.007l-0.229-0.118c0.035-0.407,0.069-0.129,0.089-0.313
				c-0.283-0.883-0.32-4.575-0.62-5.239c-0.104-1.51-0.02-3.196-0.077-4.643l0.035,0.278c0.031-1.775-0.186-4.117-0.42-5.592
				l0.053,0.074c-0.033-0.966-0.2-3.241-0.422-4.442c0.002-2.436,0.784-0.862,0.32-3.537c-0.176-2.467-0.671-3.838-0.746-2.838
				c-0.134-4.438-0.879-9.45-0.868-13.591c-0.14-0.633-0.165-0.225-0.32-1.539c-0.467-6.507-1.216-13.772-1.134-18.994
				c0.216,1.887,0.23,0.114,0.355,0.069c-0.304-1.553,0.085-1.891-0.265-2.436c-0.183,0.162-0.334,0.017-0.288,1.859
				c-0.298-3.9-0.396-9.866-0.286-12.036c-0.064,1.086-0.148,0.245-0.231-0.607c0.334,0.282,0.287-2.621,0.14-4.78l-0.201-0.301
				l0.175-1.413c-0.078-0.83-0.427-0.91-0.28-3.058c0.074-0.117,0.149-0.243,0.197-0.639c-0.166-2.232-0.626-5.381-0.563-7.818
				l0.193-2.003c-0.08-1.037-0.332-2.781-0.33-0.946c-0.054-4.163-0.209-6.842-0.037-8.174c-1.013-7.124-1.766-17.545-1.785-25.955
				l0.151,0.25c0.097-2.257-0.276-1.171-0.202-2.745c0.152,0.727,0.273-1.718,0.475,0.051c0.083-3.22-0.194-4.159-0.242-6.261
				c-0.185-0.325,0.082,1.694-0.152,1.281c-0.06-0.362,0.26-4.469-0.018-4.982c0.134-0.808,0.332-0.165,0.439,0.277
				c-0.019-0.659-0.089-1.319-0.065-1.979c0.429-2.389,0.405,5.518,0.925,3.002l-0.001-1.81c0.347-1.713,0.226,4.794,0.441,0.262
				c-0.085-1.972-0.297-3.677-0.59-1.932c0.252-4.108-0.538-1.949-0.154-6.378c0.268-1.191-0.247,3.551,0.061,2.717
				c0.402-2.05,0.208-4.213,0.441-6.014c-0.276,2.01-0.427,0.269-0.372-1.038c0.32-2.189,0.155,1.46,0.445-1.664
				c-0.125-0.528-0.011-3.403-0.334-0.933c-0.25-1.146,0.324-3.24,0.061-4.96c0.298-1.015,0.522,3.256,0.759-0.194
				c-0.274,0.538-0.222-4.264-0.66-2.447c0.115-1.346,0.323-1.489,0.451-0.504c0.19-1.934-0.504-4.693,0.012-5.334l-0.27-0.661
				c0.077-0.609,0.147-1.476,0.242-2.475c-0.059-1.711-0.562-5.496-0.158-5.36c-0.053-0.544-0.248-4.462-0.442-2.938
				c-0.038,2.442,0.341,2.79,0.017,4.158c0.251-1.728-0.197-3.504-0.368-4.902l0.142-0.239c-0.103-0.833-0.168-2.763-0.362-3.278
				c0.121,0.639,0.209,0.298,0.212-0.369l-0.28-0.87c-0.296-3.405,0.369-0.828,0.126-4.143l0.314,2.513
				c-0.068-0.553,0.092-1.692-0.065-3.28c-0.25-0.605-0.558-1.753-0.743-2.28c-0.171-1.876,0.207-0.853-0.089-2.695l0.356,2.411
				c0.085,0.364,0.287-1.647,0.178-4.152c-0.163-1.594-0.47-4.092-0.558-1.548c-0.025-1.265,0.077-3.038,0.25-2.039
				c-0.122-2.861-0.224,0.384-0.398-2.085c0.132-1.027,0.273-4.153,0.431-6.016l0.417,2.543l-0.037-1.691
				c0.338,2.19,0.193-1.118,0.524,0.121c0.02-1.161-0.115-2.566-0.22-3.685c-0.406,3.397-0.75-3.777-1.168-2.776
				c-0.229-4.623,1.047-2.944,0.053-7.743c-0.066,0.797-0.542-1.457-0.234,1.451c-0.131-2.879-0.564-1.93-0.593-5.333
				c0.337,2.5,0.279-2.729,0.768,0.885c-0.161-0.231,0.015,2.036,0.09,2.59c0.096-1.195,0.46,0.221,0.277-2.729
				c-0.154-1.799-0.316-4.267-0.523-3.89c-0.248,0.09,0.198,2.744-0.129,1.609c-0.298-3.577,0.032-4.207-0.563-5.65
				c0.257,2.257,0.006,2.844-0.166,2.814l-0.322-2.614l0.214,0.493c-0.269-4.221-0.419-1.219-0.75-5.298l0.153-1.945
				c0.375,0.945,0.422,5.947,0.819,5.179c-0.227-2.655-0.544-3.515-0.655-6.025c0.091,0.552,0.173,1.312,0.265,1.859
				c-0.074-0.953,0.458-1.959-0.259-5.708c-0.366-1.937-0.225-0.499-0.403-0.528c-0.545-4.25-0.869-5.5-1.213-8.235
				c0.403,0.524-0.528-4.846,0.168-1.862c-0.037,1.416,0.695,7.564,1.192,9.036c0.233-1.594,0.326,3.349,0.785,4.221
				c-0.297-3.42,0.076-3.292,0.28-3.871c-0.091-0.951-0.308-1.858-0.413-2.419c-0.29-0.375-0.143,0.865-0.385,0.964
				c-0.375-3.817-0.936-7.473-1.416-9.542c-0.063-1.268,0.268-0.921,0.459,0.588c-0.59-4.495-1.575-9.218-2.751-13.364
				c0.45,2.762-1.503-4.545-1.281-2.626c0.682,2.194,0.872,4.181,0.375,3.014c-0.371-1.375,0.18-0.005,0.096-0.603
				c-0.737-1.671-0.542-2.801-1.447-4.38c1.45,3.841,0.72,0.596,1.26,1.207c-1.133-2.767,0.286,0.038-0.755-2.738
				c-1.169-2.747-2.849-6.001-4.395-8.913c-1.614-3.848-5.359-9.049-7.792-11.807c-1.098-1.602-0.006-0.811-1.363-2.427
				c-1.674-1.827,0.954,1.614-1.393-1.202l0.289,0.213c-0.751-0.809-4.767-4.763-5.984-4.945l1.111,0.399
				c-0.502-0.472-1.058-0.785-1.559-1.053c0.05-0.117-0.546-0.66,0.425-0.098c-1.727-1.477-3.949-2.78-6.331-3.387l1.395,0.742
				c-3.822-1.377-6.978-1.008-9.973,1.692l-0.048-0.245c-0.581,0.556-1.125,1.154-1.629,1.78c0.237-0.597-1.362,0.985-1.979,2.137
				c1.118-1.792,2.367-3.533,4.01-4.984c1.505-0.977-1.387,1.414-0.349,0.9c0.716-0.667,4.018-2.333,4.688-2.391
				c-1.441,0.233-1.458,0.439-2.468,0.902c-0.58-0.063,1.441-1.03,2.576-1.332c-0.793,0.123-1.905,0.372-2.013,0.578
				c1.366-0.694,3.096-1.163,5.664-0.536c-1.764-0.202,0.897,0.366,0.213,0.334c0.233-0.206,2.771,0.424,5.261,2.349
				c1.704,1.427,4.834,3.316,7.355,5.937c-1.275-0.801-2.702-1.996-4.5-3.226c1.669,1.497,1.914,1.599,3.447,3.243
				c0.953,0.579,1.666,0.967,3.754,3.062l-0.055,0.257c1.713,2.03,2.052,1.78,3.942,4.617c3.263,4.84,5.97,10.206,7.634,14.317
				l-0.121,0.229c1.374,2.104,3.063,7.626,4.06,10.8c1.366,5.494,2.495,12.064,2.446,14.948c1.296,9.826,2.378,18.446,2.856,28.718
				l-0.402-1.709c0.331,1.824-0.095,1.206,0.061,3.006c0.106-2.087,0.46,2.48,0.72,3.742c-0.082,4.583,0.283,10.469,0.579,14.514
				l-0.201,0.16c0.413,4.065,0.239,8.934,0.438,14.028c-0.053,0.587-0.195,1.516-0.093,3.032c0.474,2.74,0.523,4.19,0.936,8.237
				c0.116,2.966,0.28,7.79,0.135,10.82c0.892,11.275-1.481,22.655-1.214,34.081l-0.258,0.826c0.37,11.158,0.886,24.921,1.704,34.493
				l-0.462-0.901c0.058,3.009,0.512,6.838,0.751,6.057c0.006,3.028,0.566,7.528,0.28,9.464c-0.018,3.094,0.259,3.781,0.361,6.358
				c-0.026,6.181,0.097,8.422,0.319,14.211l-0.013-1.435c-0.107-0.631-0.281-0.683-0.269,0.759c0.103,2.155,0.268,7.949,0.622,5.771
				c0.107,6.191,1.146,14.385,1.282,20.438c0.092-0.521,0.237,0.997,0.376,1.625c0.458,5.421,0.535,11.181,1.069,15.505
				c-0.007,0.867-0.32-1.366-0.183,0.854c0.14,1.31,0.175,0.014,0.36,1.631c0.776,8.8,0.779,17.85,1.222,25.871
				c0.938,14.252,1.15,29.207,0.506,42.935l-0.09-0.159c0.25,4.625-1.129,10.738-0.866,14.452c-0.166,1.074-0.526,4.145-0.604,3.316
				c-0.176,3.701-1.745,10.184-3.033,15.423c0.147-0.472,0.209-0.753,0.329-1.314c-1.717,5.135-3.219,9.836-6.688,14.59
				c0.303-0.512,0.902-1.41,0.907-1.611c-1.349,1.783-2.783,4.608-4.041,5.172c-0.855,0.972-0.445,0.858,0.076,0.25
				c-9.007,9.731-24.58,11.769-37.06,7.667c-8.742-3.716-0.318-0.754-7.209-3.587c-0.483-0.386-0.469-0.064-0.507-0.2
				c-2.593-1.306-3.518-2.808-5.25-3.782c0.466,0.746-1.134-0.704-1.292-0.606c-4.245-3.942-4.739-5.048-7.643-8.551l0.311,0.201
				c-3.525-4.042-5.467-10.38-6.695-14.486c-3.766-13.902-4.959-28.124-7.062-41.749c-2.072-13.723-3.917-27.659-3.885-41.729
				c-0.046-13.671-1.321-27.224-2.091-40.949c-0.793-13.854-0.333-27.418-1.875-41.292c-0.211-6.574-0.315-7.045-1.041-14.254
				c0.088,0.291,0.14,0.738,0.161,0.251c-0.396-0.327-0.392-5.084-0.703-5.765c-0.526-10.396-0.102-20.278,1.663-30.804
				c-0.215,1.667-0.077,2.54,0.2,0.561l0.104-2.092l0.142-0.325c0.155-1.359,0.216-2.853-0.098-1.474
				c2.224-13.009,1.169-26.177,1.901-39.492c0.476-13.224,1.307-26.366,2.385-39.462C7.176,82.242,8,73.4,8.8,66.656
				c1.708-9.734,2.455-19.8,7.455-28.494c4.813-8.595,10.631-16.057,16.404-24.581C32.674,13.591,31.673,16.214,27.089,23.243z"/>
			<path d="M36.841,9.029c0.527-0.508,1.984-2.345,1.068-0.707C37.641,8.416,36.828,9.313,36.841,9.029z"/>
			<path d="M77.789,34.873c0.075,0.059,0.252,0.841,0.297,1.032c-0.284-0.703-0.666-1.314-0.803-1.908
				C77.569,34.711,77.6,34.573,77.789,34.873z"/>
			<path d="M81.815,50.005c-0.185-0.21-0.877-3.477-1.41-5.376C80.961,46.397,81.385,48.2,81.815,50.005z"/>
			<path d="M83.011,64.705c0.024,1.279-0.083,0.937-0.276-0.769C82.796,63.804,82.9,64.363,83.011,64.705z"/>
			<path d="M83.46,65.712c0.117,1.221,0.087,1.838,0.059,2.44C83.64,68.096,83.179,65.33,83.46,65.712z"/>
			<path d="M85.175,97.692c0.03,0.766,0.189,2.427,0.044,3.144C85.313,100.034,84.947,97.103,85.175,97.692z"/>
			<path d="M85.72,112.653c0.01,0.484-0.008,0.684,0.055,1.244c-0.03,0.894-0.174-0.042-0.219-0.792L85.72,112.653z"/>
			<polygon points="90.868,384.112 91.093,382.53 91.192,382.784 			"/>
			<path d="M17.053,375.719c-0.383-1.557-0.069-1.12-0.097-1.388C17.236,375.751,16.681,373.838,17.053,375.719z"/>
			<polygon points="8.418,312.135 8.433,312.626 8.131,312.475 			"/>
		</g>
	</g>
</g>
<g>
	<g>
		<path fill="none" d="M48.235,4.734c0,26.187,1.492,52.651-0.05,78.809c-1.306,22.149,1.382,44.636,0.814,66.821
			c-0.603,23.559-2.348,47.111-1.275,70.682c1.323,29.065,7.511,57.864,7.511,86.979c0,19.195,2.234,37.806,1.223,56.923
			c-0.472,8.923-1.256,17.411-0.056,26.129c1.166,8.467-1.49,18.08,1.5,26.237"/>
		<g>
			<path d="M48.781,5.725c-0.076-1.515-0.251,0.817-0.12-0.99C48.781,4.938,48.872,5.233,48.781,5.725z"/>
			<path d="M57.145,412.362c-1.508-4.753-0.007-11.265-0.559-16.586c-0.038-0.627,0.419,0.153,0.306-1.262
				c-1.088-5.117-1.479-13.331-0.523-19.606l0.102,0.386c0.137-1.193-0.195-2.677-0.08-3.946c0.079-0.005,0.088,0.414,0.212,0.126
				c-0.218-0.334,0.022-2.308-0.123-2.857c0.121-0.497,0.305-0.438,0.445-1.083l-0.227-0.742c-0.494-2.056,0.237-4.926,0.014-7.706
				c0.058,0.135,0.098,0.411,0.166,0.192c-0.276-4.452-0.275-10.004-0.572-14.965c0.1,0.194,0.277,0.371,0.377,0.078
				c-0.282-0.237-0.412-1.767-0.524-3.095c0.266-0.61-0.359-2.27-0.263-3.836l0.07,0.131c-0.35-1.138,0.101-1.717-0.308-2.636
				l0.193-0.743c-0.434-0.485,0.133-1.678-0.121-2.62l-0.083,0.034c-0.142-0.893,0.041-1.37-0.068-2.2l0.043-0.082
				c-0.195-1.946-0.018-3.092-0.336-3.029c0.226-0.696,0.202,1.887,0.526,0.794c-0.663-6.4-0.761-13.037-0.831-19.509
				c0.111-0.733,0.139-1.201,0.256-1.367c-0.081-0.646-0.119-2.434-0.297-3.017c0.012,0.218,0.154-0.42,0.161-0.764
				c0.092-1.179-0.383-1.274-0.271-2.569c0.098,0.511,0.206,0.684,0.32,0.506c-0.288-1.092-0.248-2.567-0.411-3.863
				c0.067,0.199,0.12,0.511,0.217,0.458c-0.377-1.408-0.112-2.597-0.373-3.832l0.215,0.454c0.091-2.021-0.425-0.568-0.407-2.311
				c0.086,0.413,0.148,0.261,0.229,0.331c-0.448-1.596-0.49-4.22-0.738-5.821c0.034,0.095,0.083,0.064,0.083,0.064
				c-0.21-1.75-0.281-3.594-0.612-5.508c0.015-0.71,0.471,0.187,0.226-1.664c-0.363,0.104-0.453-3.136-0.767-2
				c-0.074-1.591-0.252-4.109-0.487-5.15c0.22,0.696,0.363-0.82,0.543,0.492l0.111-1.021c0.167,0.132,0.065,1.03,0.219,0.692
				c-0.09-0.658-0.454-2.563-0.46-3.16c-0.366-1.197-0.913-2.271-1.187-4.241c0.253,0.912,0.344-0.576,0.481,0.047L51,261.682
				c-0.096-0.654,0.274-0.176,0.064-1.116c-0.092,0.06-0.202-0.348-0.315-0.626c0.013-0.254-0.417-2.726-0.088-3.054
				c0.106-0.31,0.203,1.062,0.246,0.317c-0.148-1.212-0.279-1.252-0.43-2.467l0.046-0.029c-0.044-0.807-0.428-2.347-0.53-1.451
				c0.052,0.561,0.194-0.237,0.183,0.603c-0.276-0.541-0.494-1.948-0.635-3.165c0.105,0.409,0.196,0.348,0.318,0.502
				c-0.47-1.602-0.756-3.325-1.082-5.14c-0.176-0.009,0.392,0.647,0.331,0.927c-0.03-2.365-0.889-4.799-0.707-6.79
				c0.061,0.317-0.229,0.195-0.183,0.169c-0.086-1.134,0.17-1.105,0.008-1.833c0.14-0.088-0.135-0.922-0.252-1.677
				c-0.143-0.382,0.053-0.203,0.131,0.455c-0.206-1.046-0.901-5.252-0.795-7.726c-0.094,0.056-0.455-1.479-0.48-2.044l0.242,0.205
				c0.104-0.523-0.141-1.887,0.048-1.993c-0.354-1.185,0.535,4.618,0.216,3.005c0.163-0.435-0.51-2.244-0.176-1.914
				c-0.082-1.13-0.409-2.213-0.265-3.306c-0.017,0.315,0.376,0.899,0.3-0.012c-0.145-1.606-0.139-0.451-0.299-1.753l-0.142-0.814
				c-0.224-0.043-0.015-1.442-0.245-0.833c0.177-0.206-0.187-2.338,0.188-2.187l0.298,0.214c-0.043-0.694-0.342-1.129-0.487-1.672
				c0.023-0.094,0.076-0.278,0.124-0.245c-0.449-0.099-0.015-1.664-0.385-2.484c0.086-1.465-0.042-3.714,0.224-4.407
				c-0.143-1.122-0.31-2.146-0.223-3.427c0.044,0.256,0.059,0.604,0.155,0.676c0.125-0.804,0.007-1.002-0.07-1.738
				c0.071,0.165,0.24-1.608,0.421-2.5c-0.119-1.114-0.364-0.733-0.509-0.846c0.453-1.015-0.243-3.154,0.171-4.427
				c0.056,0.389,0.195,1.632,0.317,0.705c0.454-1.011-0.304-2.061-0.061-3.698l-0.375,0.395c0.245-0.728-0.147-2.422,0.219-2.247
				c-0.116-0.553,0.173-1.935-0.187-1.761c0.365-2.689-0.001-6.568,0.706-8.201c-0.046-0.389,0.049-1.351-0.141-1.16
				c-0.221,0.635,0.11,0.901-0.034,1.136c0.002-0.348-0.093-0.426-0.141-0.465c0.111-0.834,0.16-1.493,0.427-0.691
				c0.286-1.855-0.536-1.944-0.313-4.313c0.143,0.113,0.206-0.064,0.21-0.759l-0.2-1.325c0.119-1.53,0.369-0.859,0.619-0.887
				c-0.011-0.82,0.04-1.821-0.13-2.202l0.351-0.982c-0.254,0.718-0.124-0.68-0.169-1.067l0.045,0.387
				c0.112-0.145,0.084-1.096,0.071-1.579c-0.159,0.11-0.259,1.074-0.325,1.6c-0.093-0.421-0.042-1.073-0.149-1.633
				c0.238,0.194,0.225-1.328,0.274-1.977c0.081-0.744-0.187-0.851-0.171-1.068c0.128-0.015,0.067-1.217,0.223-0.629
				c0.031,0.256-0.145,0.577-0.049,1.002c0.113-0.488,0.332-0.422,0.209-1.452c-0.092-0.772-0.49,0.18-0.281-1.271
				c0.046,0.384,0.141,0.458,0.218,0.759l0.178-1.362l-0.22-0.067c0.063-0.183,0.079-0.054,0.111-0.137
				c-0.219-0.417,0.006-2.09-0.246-2.409c0.005-0.69,0.202-1.447,0.249-2.104l0.016,0.128c0.155-0.801,0.103-1.872-0.027-2.552
				l0.047,0.037c0.031-0.438,0.028-1.477-0.086-2.033c0.202-1.103,0.852-0.347,0.61-1.584c0.032-1.126-0.362-1.773-0.511-1.326
				c0.168-2.014-0.175-4.309,0.188-6.176c-0.087-0.291-0.146-0.107-0.193-0.706c0.108-2.962-0.353-6.255,0.06-8.624
				c0.108,0.856,0.224,0.052,0.35,0.031c-0.211-0.705,0.192-0.861-0.154-1.106c-0.2,0.076-0.298,0.008-0.365,0.845
				c-0.141-1.767-0.25-4.461-0.09-5.449c-0.076,0.494-0.15,0.115-0.224-0.269c0.326,0.117,0.33-1.192,0.183-2.177l-0.2-0.131
				l0.179-0.652c-0.075-0.377-0.423-0.402-0.275-1.391c0.074-0.056,0.149-0.116,0.197-0.298c-0.2-1.017-0.529-2.451-0.407-3.568
				l0.249-0.92c-0.05-0.473-0.253-1.268-0.302-0.428c0.095-1.902,0.072-3.125,0.299-3.738c-0.722-3.248-0.919-8.001-0.933-11.821
				l0.149,0.112c0.115-1.027-0.267-0.529-0.181-1.245c0.146,0.328,0.287-0.785,0.475,0.017c0.128-1.468-0.305-1.884-0.369-2.837
				c-0.193-0.144,0.122,0.767-0.12,0.584c-0.073-0.163,0.155-2.034-0.136-2.26c0.116-0.37,0.329-0.083,0.446,0.115l-0.139-0.896
				c0.344-1.096,0.6,2.496,1.022,1.342l-0.043-0.823c0.307-0.788,0.336,2.175,0.448,0.109c-0.141-0.896-0.56-1.664-0.691-0.864
				c-0.074-1.871-0.69-0.869-0.66-2.884c0.173-0.548,0.036,1.614,0.276,1.227c0.237-0.946-0.125-1.903-0.04-2.747
				c-0.112,0.936-0.403,0.14-0.455-0.469c0.147-1.022,0.258,0.672,0.323-0.781c-0.159-0.242-0.234-1.584-0.396-0.429
				c-0.36-0.537,0.163-1.512-0.102-2.313c0.285-0.463,0.562,1.517,0.756-0.076c-0.268,0.246-0.275-1.982-0.69-1.153
				c0.098-0.625,0.303-0.681,0.444-0.219c0.193-0.885-0.388-2.193,0.135-2.461l-0.252-0.322c0.097-0.276,0.175-0.675,0.337-1.121
				c0.04-0.779-0.244-2.529,0.151-2.438c-0.03-0.252,0.068-2.031-0.238-1.357c-0.218,1.097,0.143,1.282-0.256,1.879
				c0.339-0.766,0.032-1.597-0.04-2.239l0.159-0.097c-0.043-0.383,0.031-1.257-0.125-1.502c0.075,0.296,0.187,0.148,0.238-0.152
				l-0.216-0.41c-0.047-1.548,0.428-0.348,0.428-1.854l0.129,1.15c-0.027-0.253,0.215-0.756,0.175-1.48
				c-0.201-0.288-0.434-0.821-0.589-1.066c-0.071-0.851,0.25-0.373,0.05-1.215l0.234,1.102c0.067,0.169,0.37-0.727,0.388-1.861
				c-0.059-0.728-0.343-1.86-0.484-0.721c0.008-0.569,0.156-1.362,0.303-0.907c-0.046-1.291-0.234,0.165-0.343-0.95
				c0.152-0.452,0.386-1.866,0.612-2.716l0.333,1.168l0.02-0.771c0.265,1.005,0.229-0.505,0.52,0.066
				c0.059-0.528-0.03-1.171-0.098-1.683c-0.518,1.538-0.625-1.739-1.076-1.294c-0.11-2.117,1.08-1.314,0.397-3.528
				c-0.116,0.361-0.449-0.68-0.325,0.653c0.052-1.314-0.44-0.896-0.252-2.446c0.177,1.149,0.452-1.233,0.709,0.428
				c-0.146-0.11-0.114,0.927-0.074,1.182c0.172-0.541,0.445,0.115,0.45-1.233c-0.039-0.823-0.044-1.951-0.275-1.786
				c-0.253,0.032,0.023,1.254-0.231,0.728c-0.082-1.638,0.304-1.912-0.143-2.589c0.032,1.035-0.229,1.293-0.403,1.273l-0.101-1.2
				l0.167,0.232c0.124-1.929-0.292-0.568-0.261-2.436l0.324-0.879c0.296,0.444-0.108,2.719,0.352,2.385
				c0.026-1.215-0.228-1.618-0.114-2.764l0.101,0.855c0.012-0.437,0.625-0.873,0.248-2.604c-0.148-0.895-0.168-0.236-0.342-0.256
				c-0.071-1.952-0.254-2.534-0.292-3.79c0.342,0.255,0.013-2.223,0.373-0.838c-0.193,0.641-0.148,3.463,0.183,4.152
				c0.396-0.714-0.043,1.534,0.369,1.948c-0.004-1.565,0.393-1.491,0.65-1.746c0.014-0.435-0.1-0.856-0.142-1.115
				c-0.247-0.182-0.238,0.387-0.489,0.422c0.05-1.748-0.102-3.431-0.349-4.391c0.116-0.585,0.362-0.405,0.392,0.287
				c-0.096-2.078-0.107-4.301-0.063-6.279c-0.378,1.284-0.13-2.201-0.447-1.324c-0.073,1.06-0.342,1.973-0.53,1.392
				c0.015-0.661,0.175,0.019,0.256-0.259c-0.232-0.839,0.328-1.314-0.029-2.136c0.16,1.897,0.492,0.36,0.811,0.704
				c-0.198-1.367,0.224,0.056,0.201-1.302c-0.195-1.361-0.364-3.037-0.459-4.554c0.261-1.912-0.084-4.831-0.127-6.534
				c0.144-0.895,0.507-0.297,0.554-1.265c-0.024-1.136-0.369,0.848-0.232-0.836l0.073,0.162c-0.089-0.509,0.194-3.087-0.321-3.576
				l0.391,0.513c0.031-0.315-0.062-0.604-0.106-0.862c0.125-0.015,0.232-0.381,0.322,0.127c0.248-1.041-0.075-2.177-0.103-3.304
				l-0.216,0.728c-0.212-1.927,0.014-3.223-0.079-5.09l0.222,0.056l-0.14-1.111c0.216,0.271,0.349-0.749,0.166-1.335l0.561,2.883
				c-0.126,0.803-0.273-0.875-0.489-0.37c-0.189,0.43-0.118,2.157,0.098,2.434c0.021-0.662-0.029-0.692-0.112-1.206
				c0.307-0.22,0.302,0.784,0.511,1.278c-0.015-0.347,0.076-0.839-0.022-0.913c0.157,0.679,0.177,1.364,0.205,2.497
				c-0.133-0.765-0.186,0.419-0.277,0.131c0.272,0.087,0.373,1.168,0.318,2.57c-0.299,1.004,0.242,2.626,0.179,4.25
				c-0.285-0.654-0.519-1.492-0.645-2.477c-0.123,1.021,0.025,1.133-0.099,2.157c0.213,0.491,0.532,0.837,0.677,2.164l-0.202,0.076
				c0.125,1.202,0.426,1.197,0.398,2.731c-0.051,2.629-0.001,5.333,0.01,7.34l-0.201,0.078c0.452,1.109,0.221,3.716,0.438,5.216
				c-0.15,2.559,0.284,5.549-0.061,6.864c0.204,4.512,0.394,8.459,0.283,13.138l-0.292-0.789c0.214,0.839-0.172,0.545-0.131,1.367
				c0.239-0.944,0.302,1.141,0.48,1.722c-0.216,2.081-0.057,4.759,0.119,6.612l-0.205,0.068c0.327,1.876-0.011,4.1-0.186,6.422
				c-0.096,0.263-0.305,0.676-0.314,1.37c0.271,1.273,0.217,1.933,0.338,3.794c-0.06,1.351-0.247,3.547-0.42,4.897
				c0.206,5.062-0.145,10.208,0.167,15.463l-0.23,0.382c0.587,5.087,0.322,11.371,0.758,15.722l-0.422-0.405
				c-0.077,1.372,0.229,3.113,0.502,2.753c-0.071,1.377,0.333,3.416,0.032,4.3c-0.021,1.404,0.259,1.707,0.352,2.874
				c-0.06,2.818,0.01,3.859,0.176,6.508l0.003-0.659c-0.1-0.288-0.273-0.309-0.277,0.352c0.161,0.985-0.029,3.646,0.443,2.647
				c-0.253,2.842,0.396,6.613-0.051,9.385c0.135-0.234,0.154,0.465,0.241,0.757c-0.025,2.496-0.285,5.122-0.144,7.102
				c-0.079,0.392-0.207-0.636-0.252,0.376c0.032,0.6,0.173,0.016,0.225,0.757c0.134,4.034-0.515,8.137-0.595,11.79
				c0.008,6.505-0.395,13.267-0.562,19.479l-0.095-0.074c0.298,2.091-0.517,4.867-0.005,6.542c-0.105,0.488-0.094,1.875-0.272,1.506
				c0.203,1.661-0.329,4.628-0.028,7.026c0.012-0.219-0.006-0.346-0.045-0.601c-0.248,2.415,0.009,4.548-0.151,7.095
				c-0.043-0.258-0.077-0.729-0.175-0.805c-0.181,0.987,0.428,2.332-0.039,2.874c0.008,0.565,0.239,0.4,0.223,0.055
				c-0.143,5.582,0.295,11.528,0.828,17.299c-0.013,4.163-0.775,0.305-0.213,3.554c-0.073,0.275,0.192,0.181,0.097,0.232
				c0.219,1.255-0.41,2.016-0.081,2.874c0.254-0.386,0.217,0.571,0.395,0.583c0.053,2.55-0.158,3.083,0.25,5.064l-0.166-0.137
				c0.654,2.305,0.661,5.046,1.397,6.97c1.481,12.907,3.473,25.253,4.656,37.967c1.177,12.543,1.359,25.073,1.447,37.665
				c-0.307,2.985-0.256,3.215,0.044,6.478c-0.07-0.131-0.095-0.334-0.146-0.112c0.335,0.147,0.135,2.302,0.461,2.599
				c0.172,4.71,0.457,9.05,0.647,13.915c-0.067-0.768-0.35-1.144-0.291-0.23l0.241,0.947l-0.088,0.16
				c0.064,0.625,0.244,1.304,0.333,0.652c0.92,12.236-0.941,24.48-1.022,36.133c-0.243,2.801,0.273,6.706,0.604,9.676
				c0.786,9.552-2.206,17.872,0.964,26.211C59.337,416.804,57.909,416.098,57.145,412.362z"/>
			<path d="M48.826,7.547c-0.162,0.325-0.246,1.387-0.469,0.542C48.51,7.983,48.678,7.438,48.826,7.547z"/>
			<path d="M47.538,35.897c0.05,0.036-0.06,0.405-0.084,0.496c-0.019-0.349-0.162-0.674-0.081-0.954
				C47.39,35.794,47.467,35.738,47.538,35.897z"/>
			<path d="M47.559,43.138c-0.147-0.107-0.289-1.654-0.321-2.567L47.559,43.138z"/>
			<path d="M47.027,49.885c-0.118,0.582-0.187,0.422-0.19-0.36C46.914,49.467,46.955,49.726,47.027,49.885z"/>
			<path d="M47.363,50.361c0.009,0.56-0.074,0.839-0.156,1.111C47.333,51.451,47.117,50.176,47.363,50.361z"/>
			<path d="M46.914,64.976c0.004,0.35,0.108,1.112-0.061,1.435C46.974,66.047,46.706,64.702,46.914,64.976z"/>
			<path d="M46.987,71.763c-0.014,0.219-0.042,0.308-0.008,0.563c-0.075,0.4-0.172-0.027-0.178-0.367L46.987,71.763z"/>
			<polygon points="46.384,195.692 46.321,194.954 46.464,195.064 			"/>
			<path d="M49.175,250.036c0.173,0.719-0.079,0.522-0.086,0.647C48.999,250.024,49.295,250.907,49.175,250.036z"/>
			<polygon points="53.195,279.051 53.17,278.828 53.475,278.873 			"/>
		</g>
	</g>
</g>
<g>
	<g>
		<path fill="none" d="M75.901,32.721c-4.716,20.546-3.526,41.461-4.663,62.296c-3.962,72.599-6.594,148.076,0.997,220.28
			c1.211,11.523,5.113,22.789,7.023,34.306c1.002,6.046,1.197,11.073,3.255,16.952c1.987,5.681,7.353,13.22,7.722,17.355"/>
		<g>
			<path d="M76.266,33.673c0.183-1.286-0.383,0.629,0.052-0.856C76.399,33.015,76.438,33.281,76.266,33.673z"/>
			<path d="M89.286,379.652c-2.394-3.53-4.624-8.538-6.706-12.649c-0.209-0.499,0.39,0.004-0.041-1.121
				c-2.188-4.023-2.487-11.16-2.896-16.56l0.172,0.306c-0.097-1.035-0.719-2.21-0.863-3.297c0.076-0.022,0.174,0.325,0.233,0.056
				c-0.271-0.229-0.479-1.928-0.763-2.342c-0.002-0.441,0.19-0.44,0.173-1.009L78.2,342.48c-0.977-1.565-0.907-4.132-1.771-6.369
				c0.088,0.097,0.19,0.314,0.205,0.117c-1.278-3.612-2.322-8.265-3.307-12.419c0.122,0.149,0.326,0.268,0.382,0.003
				c-0.315-0.151-0.617-1.436-0.874-2.554c0.19-0.553-0.617-1.888-0.612-3.252l0.079,0.105c-0.433-0.946-0.019-1.482-0.487-2.239
				l0.148-0.651c-0.45-0.389,0.074-1.448-0.212-2.241l-0.081,0.035c-0.173-0.758-0.006-1.178-0.144-1.885l0.041-0.072
				c-0.268-1.657-0.133-2.649-0.448-2.578c0.199-0.609,0.272,1.606,0.555,0.651c-0.892-5.451-1.292-11.126-1.717-16.659
				c0.079-0.638,0.086-1.041,0.196-1.19c-0.108-0.548-0.223-2.078-0.426-2.567c0.021,0.186,0.135-0.369,0.128-0.663
				c0.058-1.015-0.42-1.076-0.347-2.192c0.112,0.435,0.225,0.578,0.335,0.421c-0.309-0.925-0.349-2.19-0.5-3.301
				c0.065,0.17,0.114,0.437,0.211,0.389c-0.359-1.202-0.081-2.229-0.327-3.286l0.209,0.388c0.115-1.735-0.418-0.484-0.38-1.98
				c0.082,0.354,0.146,0.224,0.225,0.283c-0.419-1.368-0.463-3.621-0.646-5.001c0.029,0.082,0.079,0.057,0.079,0.057
				c-0.115-1.508-0.087-3.093-0.313-4.747c0.053-0.608,0.46,0.176,0.314-1.419c-0.368,0.076-0.283-2.706-0.657-1.745
				c-0.005-1.368,0.029-3.536-0.14-4.44c0.17,0.607,0.42-0.684,0.506,0.45l0.184-0.868c0.157,0.122-0.009,0.885,0.169,0.604
				c-0.05-0.567-0.255-2.219-0.21-2.729c-0.264-1.046-0.722-1.998-0.828-3.703c0.172,0.797,0.393-0.471,0.476,0.071l-0.793-2.356
				c-0.037-0.566,0.289-0.133,0.164-0.951c-0.097,0.045-0.17-0.311-0.259-0.558c0.036-0.216-0.174-2.36,0.183-2.618
				c0.134-0.257,0.108,0.923,0.217,0.29c-0.04-1.048-0.167-1.091-0.209-2.141l0.048-0.022c0.037-0.692-0.201-2.036-0.387-1.279
				c-0.001,0.483,0.215-0.188,0.125,0.528c-0.222-0.481-0.309-1.7-0.335-2.751c0.066,0.357,0.163,0.312,0.27,0.452
				c-0.318-1.403-0.441-2.896-0.596-4.471c-0.174-0.021,0.329,0.582,0.243,0.815c0.197-2.024-0.433-4.164-0.118-5.851
				c0.037,0.275-0.244,0.151-0.195,0.132c0-0.974,0.252-0.933,0.147-1.564c0.146-0.066-0.056-0.797-0.108-1.449
				c-0.11-0.336,0.071-0.171,0.092,0.396c-0.135-0.907-0.398-4.545-0.205-6.648c-0.097,0.042-0.372-1.287-0.366-1.77l0.23,0.187
				c0.132-0.443-0.036-1.619,0.158-1.701c-0.288-1.029,0.277,3.972,0.049,2.578c0.187-0.364-0.384-1.941-0.069-1.644
				c-0.019-0.969-0.285-1.909-0.081-2.836c-0.035,0.268,0.325,0.785,0.301,0.002c-0.054-1.38-0.118-0.392-0.195-1.512l-0.093-0.701
				c-0.223-0.044,0.031-1.234-0.218-0.72c0.184-0.17-0.112-2.005,0.257-1.864l0.291,0.192c-0.021-0.596-0.306-0.977-0.434-1.444
				c0.026-0.079,0.085-0.235,0.132-0.206c-0.445-0.096,0.038-1.424-0.306-2.133c0.155-1.25,0.015-3.179,0.293-3.768
				c-0.133-0.962-0.297-1.84-0.195-2.936c0.039,0.219,0.051,0.517,0.147,0.58c0.133-0.688,0.021-0.858-0.046-1.488
				c0.065,0.142,0.275-1.375,0.44-2.139c-0.123-0.955-0.366-0.629-0.512-0.727c0.448-0.869-0.256-2.702,0.154-3.792
				c0.057,0.333,0.202,1.397,0.32,0.603c0.447-0.868-0.306-1.765-0.081-3.169l-0.368,0.34c0.232-0.625-0.19-2.076,0.179-1.927
				c-0.126-0.473,0.138-1.66-0.219-1.508c0.339-2.307-0.076-5.629,0.587-7.037c-0.053-0.333,0.023-1.159-0.163-0.993
				c-0.208,0.547,0.127,0.772-0.012,0.975c-0.005-0.298-0.102-0.364-0.15-0.397c0.095-0.717,0.131-1.282,0.414-0.598
				c0.25-1.594-0.573-1.662-0.396-3.696c0.146,0.096,0.205-0.058,0.192-0.654l-0.23-1.135c0.083-1.315,0.352-0.741,0.6-0.767
				c-0.024-0.704,0.011-1.563-0.166-1.888l0.335-0.846c-0.243,0.618-0.135-0.583-0.187-0.914l0.052,0.332
				c0.11-0.125,0.066-0.941,0.046-1.355c-0.157,0.096-0.242,0.924-0.299,1.375c-0.1-0.361-0.059-0.92-0.175-1.4
				c0.24,0.165,0.205-1.142,0.245-1.699c0.07-0.64-0.199-0.73-0.187-0.917c0.127-0.013,0.05-1.045,0.214-0.541
				c0.035,0.22-0.136,0.496-0.035,0.861c0.106-0.42,0.325-0.365,0.188-1.248c-0.104-0.663-0.487,0.156-0.299-1.091
				c0.052,0.33,0.147,0.393,0.229,0.651l0.159-1.17l-0.221-0.057c0.061-0.157,0.077-0.047,0.108-0.118
				c-0.225-0.357-0.023-1.795-0.28-2.068c-0.007-0.593,0.187-1.244,0.229-1.808l0.016,0.11c0.154-0.688,0.1-1.608-0.031-2.193
				l0.048,0.032c0.03-0.376,0.025-1.269-0.089-1.748c0.2-0.946,0.852-0.291,0.607-1.355c0.025-0.967-0.356-1.529-0.512-1.146
				c0.209-1.732-0.087-3.721,0.313-5.32c-0.081-0.254-0.143-0.098-0.178-0.616c0.172-2.549-0.052-5.4,0.462-7.414
				c0.064,0.743,0.221,0.058,0.348,0.048c-0.175-0.618,0.236-0.727-0.097-0.958c-0.203,0.052-0.298-0.012-0.408,0.703
				c-0.047-1.527,0.046-3.843,0.267-4.679c-0.11,0.418-0.158,0.088-0.205-0.246c0.316,0.123,0.409-0.999,0.33-1.853l-0.19-0.127
				l0.224-0.545c-0.05-0.329-0.394-0.377-0.169-1.211c0.078-0.042,0.157-0.087,0.22-0.239c-0.12-0.885-0.335-2.136-0.126-3.082
				l0.32-0.767c-0.013-0.408-0.153-1.104-0.268-0.39c0.245-1.62,0.314-2.666,0.584-3.171c-0.479-2.831-0.312-6.901-0.101-10.157
				l0.142,0.105c0.18-0.869-0.233-0.468-0.101-1.074c0.125,0.29,0.336-0.651,0.473,0.044c0.216-1.245-0.174-1.626-0.2-2.443
				c-0.186-0.134,0.09,0.662-0.146,0.491c-0.062-0.143,0.236-1.725-0.044-1.934c0.129-0.309,0.331-0.053,0.44,0.122l-0.104-0.771
				c0.386-0.919,0.501,2.162,0.968,1.2l-0.011-0.707c0.337-0.659,0.25,1.881,0.443,0.117c-0.105-0.775-0.494-1.452-0.657-0.775
				c0-1.603-0.656-0.775-0.546-2.493c0.194-0.46-0.027,1.378,0.228,1.06c0.274-0.798-0.051-1.63,0.07-2.347
				c-0.152,0.794-0.409,0.104-0.436-0.417c0.184-0.867,0.245,0.583,0.341-0.655c-0.157-0.212-0.222-1.357-0.392-0.379
				c-0.356-0.468,0.174-1.282-0.085-1.972c0.289-0.389,0.551,1.307,0.757-0.047c-0.269,0.203-0.261-1.696-0.682-0.997
				c0.103-0.529,0.309-0.575,0.446-0.179c0.199-0.752-0.372-1.872,0.152-2.095l-0.25-0.276c0.099-0.235,0.181-0.572,0.344-0.954
				c0.041-0.67-0.242-2.181,0.153-2.099c-0.03-0.217,0.069-1.749-0.237-1.172c-0.218,0.944,0.143,1.107-0.257,1.618
				c0.339-0.658,0.033-1.376-0.039-1.932l0.159-0.082c-0.043-0.331,0.031-1.084-0.125-1.298c0.074,0.257,0.188,0.13,0.236-0.126
				l-0.22-0.355c-0.061-1.33,0.425-0.292,0.412-1.584l0.14,0.99c-0.03-0.218,0.208-0.646,0.162-1.268
				c-0.204-0.25-0.441-0.712-0.598-0.926c-0.063-0.73,0.255-0.315,0.065-1.04l0.218,0.948c0.064,0.146,0.38-0.616,0.416-1.588
				c-0.048-0.625-0.315-1.599-0.474-0.625c0.017-0.487,0.177-1.164,0.316-0.772c-0.027-1.107-0.236,0.138-0.329-0.819
				c0.166-0.383,0.397-1.596,0.625-2.323l0.331,1.008l0.021-0.662c0.264,0.867,0.23-0.43,0.52,0.065
				c0.059-0.452-0.028-1.005-0.096-1.446c-0.52,1.313-0.622-1.504-1.073-1.13c-0.072-1.819,1.104-1.107,0.465-3.019
				c-0.124,0.307-0.436-0.592-0.338,0.554c0.077-1.128-0.42-0.776-0.206-2.106c0.158,0.992,0.473-1.051,0.702,0.383
				c-0.144-0.098-0.131,0.794-0.097,1.013c0.182-0.461,0.444,0.107,0.473-1.049c-0.025-0.708-0.011-1.677-0.245-1.541
				c-0.253,0.022,0.001,1.079-0.244,0.621c-0.054-1.411,0.336-1.637-0.099-2.23c0.015,0.891-0.251,1.107-0.424,1.086l-0.081-1.036
				l0.164,0.204c0.161-1.656-0.293-0.498-0.21-2.104l0.35-0.746c0.277,0.39-0.183,2.335,0.29,2.06
				c0.043-1.044-0.184-1.397-0.041-2.378l0.075,0.737c0.025-0.375,0.649-0.73,0.325-2.229c-0.115-0.774-0.159-0.208-0.332-0.232
				c0.002-1.683-0.158-2.191-0.15-3.275c0.332,0.234,0.096-1.914,0.404-0.705c-0.217,0.542-0.278,2.976,0.026,3.58
				c0.422-0.6-0.1,1.318,0.305,1.686c0.041-1.343,0.441-1.268,0.707-1.477c0.031-0.373-0.067-0.737-0.1-0.961
				c-0.24-0.166-0.252,0.323-0.505,0.344c0.116-1.5,0.027-2.951-0.184-3.789c0.138-0.498,0.376-0.33,0.38,0.265
				c-0.019-1.789,0.079-3.698,0.261-5.393c-0.459,1.079,0.01-1.898-0.363-1.167c-0.139,0.906-0.466,1.676-0.617,1.163
				c0.057-0.568,0.174,0.028,0.271-0.207c-0.178-0.738,0.411-1.108,0.106-1.84c0.04,1.643,0.468,0.344,0.764,0.662
				c-0.111-1.187,0.219,0.063,0.283-1.102c-0.097-1.18-0.196-2.632-0.134-3.939c0.44-1.613,0.373-4.144,0.491-5.608
				c0.225-0.749,0.531-0.194,0.666-1.015c0.093-0.972-0.467,0.677-0.134-0.74l0.051,0.146c-0.022-0.446,0.594-2.596,0.148-3.086
				l0.32,0.492c0.071-0.263,0.017-0.521,0.007-0.748c0.125,0.005,0.279-0.29,0.302,0.155c0.38-0.846,0.209-1.856,0.329-2.818
				l-0.308,0.583c0.021-1.675,0.443-2.733,0.689-4.321l0.208,0.088l0.053-0.962c0.167,0.27,0.47-0.563,0.39-1.091l0.06,2.529
				c-0.261,0.65-0.12-0.784-0.417-0.4c-0.259,0.327-0.484,1.795-0.318,2.064c0.133-0.553,0.089-0.586,0.095-1.033
				c0.34-0.13,0.164,0.712,0.285,1.163c0.044-0.294,0.218-0.691,0.134-0.77c0.024,0.595-0.042,1.176-0.156,2.139
				c-0.032-0.668-0.237,0.325-0.291,0.065c0.258,0.118,0.217,1.047-0.02,2.223c-0.426,0.805-0.102,2.253-0.374,3.615
				c-0.198-0.589-0.32-1.33-0.317-2.182c-0.254,0.849-0.123,0.964-0.378,1.816c0.148,0.444,0.404,0.775,0.438,1.922l-0.208,0.041
				c0.012,1.038,0.311,1.066,0.139,2.367c-0.293,2.228-0.527,4.529-0.614,6.245l-0.205,0.051c0.381,0.981-0.014,3.188,0.108,4.481
				c-0.324,2.174,0.021,4.756-0.378,5.864c0.013,3.865,0.114,7.253-0.064,11.255l-0.278-0.682c0.2,0.723-0.181,0.463-0.156,1.169
				c0.257-0.805,0.279,0.984,0.446,1.485c-0.278,1.78-0.09,4.08,0.074,5.669l-0.206,0.056c0.313,1.615-0.103,3.517-0.25,5.508
				c-0.094,0.224-0.299,0.575-0.302,1.17c0.285,1.1,0.228,1.663,0.349,3.256c-0.061,1.155-0.242,3.027-0.432,4.194
				c0.227,4.371-0.302,8.794-0.244,13.326l-0.254,0.314c0.286,4.405-0.436,9.77-0.336,13.522l-0.39-0.38
				c-0.179,1.167-0.015,2.677,0.287,2.391c-0.178,1.17,0.064,2.942-0.304,3.675c-0.128,1.197,0.119,1.478,0.134,2.479
				c-0.251,2.398-0.251,3.292-0.266,5.563l0.048-0.562c-0.08-0.252-0.252-0.282-0.301,0.282c0.079,0.852-0.234,3.109,0.286,2.285
				c-0.375,2.409-0.006,5.654-0.457,7.997c0.14-0.195,0.145,0.401,0.226,0.653c-0.066,2.125-0.414,4.35-0.245,6.051
				c-0.078,0.334-0.208-0.546-0.251,0.319c0.033,0.514,0.173,0.015,0.226,0.65c0.12,3.45-0.47,6.962-0.491,10.093
				c0.089,5.571-0.159,11.373-0.208,16.705l-0.097-0.062c0.342,1.791-0.469,4.183,0.08,5.616c-0.097,0.42-0.061,1.611-0.246,1.296
				c0.249,1.424-0.289,3.977,0.025,6.036c0.011-0.188-0.008-0.297-0.047-0.516c-0.237,2.075,0.039,3.909-0.179,6.099
				c-0.04-0.223-0.066-0.627-0.163-0.694c-0.201,0.846,0.406,2.009-0.067,2.47c0.003,0.486,0.236,0.347,0.223,0.05
				c-0.172,4.796,0.082,9.919,0.248,14.909c-0.245,3.579-0.791,0.225-0.41,3.044c-0.088,0.232,0.181,0.166,0.084,0.204
				c0.143,1.09-0.508,1.708-0.254,2.462c0.286-0.316,0.167,0.503,0.343,0.523c-0.166,2.189-0.421,2.632-0.184,4.356l-0.154-0.128
				c0.461,2.017,0.292,4.366,0.822,6.063c0.285,11.154,0.994,21.826,1.596,32.677c0.46,10.736,1.425,21.211,2.12,32.098
				c-0.153,2.579-0.124,2.771,0.306,5.55c-0.075-0.107-0.107-0.28-0.149-0.087c0.34,0.106,0.22,1.964,0.557,2.199
				c0.319,4.061,0.781,7.616,1.577,11.641c-0.148-0.629-0.469-0.901-0.312-0.146l0.347,0.751l-0.067,0.146
				c0.144,0.51,0.433,1.039,0.419,0.485c2.334,9.983,4.743,20.179,6.062,30.46c0.177,2.426,0.821,5.757,1.503,8.186
				c1.023,7.566,5.928,12.748,8.336,21.316C91.574,383.805,90.787,382.548,89.286,379.652z"/>
			<path d="M76,35.208c-0.214,0.238-0.476,1.113-0.552,0.358C75.617,35.508,75.875,35.086,76,35.208z"/>
			<path d="M71.365,59.12c0.047,0.035-0.085,0.344-0.116,0.42c0.004-0.301-0.118-0.591-0.021-0.826
				C71.224,59.021,71.305,58.979,71.365,59.12z"/>
			<path d="M70.963,65.344c-0.137-0.1-0.227-1.435-0.193-2.224L70.963,65.344z"/>
			<path d="M70.17,71.128c-0.139,0.498-0.202,0.358-0.176-0.317C70.073,70.764,70.104,70.989,70.17,71.128z"/>
			<path d="M70.489,71.549c-0.008,0.481-0.099,0.718-0.189,0.95C70.426,72.485,70.249,71.383,70.489,71.549z"/>
			<path d="M69.75,84.098c0.003,0.301,0.107,0.957-0.063,1.232C69.809,85.02,69.542,83.858,69.75,84.098z"/>
			<path d="M69.77,89.922c-0.018,0.187-0.047,0.263-0.017,0.482c-0.081,0.342-0.172-0.026-0.173-0.317L69.77,89.922z"/>
			<polygon points="66.398,196.226 66.333,195.593 66.477,195.687 			"/>
			<path d="M66.664,242.855c0.105,0.627-0.127,0.44-0.146,0.547C66.489,242.833,66.702,243.609,66.664,242.855z"/>
			<polygon points="68.311,267.951 68.298,267.76 68.6,267.809 			"/>
		</g>
	</g>
</g>
<g>
	<g>
		<path fill="none" d="M18.382,38.138c-1.537,7.167,2.392,20.038,3.108,27.562c0.93,9.777,2.354,19.51,2.889,29.317
			c2.315,42.413,2.738,84.887,2.811,127.344c0.048,27.842,0.614,55.801,2.047,83.607c0.321,6.234,1.733,12.22,1.998,18.657
			c0.462,11.251-0.286,20.777-3.333,31.899c-2.285,8.34-6.211,16.323-8.667,24.677"/>
		<g>
			<path d="M18.821,39.048c0.073-1.235-0.327,0.617-0.021-0.821C18.896,38.419,18.958,38.669,18.821,39.048z"/>
			<path d="M20.921,377.326c0.545-4.126,3.317-8.85,4.378-13.219c0.154-0.503,0.346,0.268,0.666-0.873
				c0.932-4.278,3.038-10.72,4.396-15.881l0.071,0.338c0.227-0.988,0.015-2.272,0.219-3.32c0.079,0.004,0.062,0.355,0.203,0.126
				c-0.196-0.3,0.165-1.932,0.054-2.401c0.151-0.407,0.332-0.347,0.511-0.877l-0.187-0.635c-0.539-1.751,0.283-4.12,0.087-6.454
				c0.056,0.114,0.091,0.346,0.163,0.164c-0.31-3.72-0.173-8.378-0.701-12.492c0.107,0.156,0.292,0.295,0.38,0.044
				c-0.312-0.182-0.441-1.452-0.644-2.547c0.225-0.532-0.507-1.858-0.514-3.17l0.078,0.103c-0.424-0.913-0.01-1.441-0.475-2.17
				l0.146-0.639c-0.462-0.368,0.028-1.413-0.284-2.178l-0.08,0.035c-0.208-0.732-0.018-1.151-0.153-1.841l0.041-0.07
				c-0.251-1.625-0.107-2.591-0.424-2.529c0.206-0.589,0.257,1.576,0.55,0.649c-0.701-5.339-0.782-10.887-1.056-16.287
				c0.102-0.618,0.124-1.011,0.239-1.153c-0.088-0.537-0.148-2.03-0.333-2.515c0.015,0.182,0.149-0.354,0.152-0.642
				c0.08-0.986-0.403-1.061-0.298-2.146c0.097,0.427,0.209,0.569,0.322,0.42c-0.28-0.91-0.275-2.144-0.389-3.229
				c0.059,0.167,0.099,0.428,0.198,0.384c-0.319-1.182-0.005-2.174-0.215-3.211l0.196,0.384c0.174-1.688-0.401-0.483-0.312-1.94
				c0.069,0.348,0.138,0.222,0.214,0.282c-0.376-1.345-0.331-3.541-0.485-4.89c0.028,0.08,0.078,0.057,0.078,0.057
				c-0.086-1.472-0.027-3.015-0.222-4.631c0.064-0.592,0.457,0.182,0.342-1.376c-0.37,0.066-0.231-2.642-0.624-1.714
				c0.01-1.333,0.133-3.445-0.015-4.329c0.151,0.596,0.442-0.658,0.493,0.448l0.211-0.842c0.153,0.121-0.037,0.862,0.15,0.592
				c-0.025-0.555-0.2-2.167-0.148-2.664c-0.245-1.024-0.687-1.96-0.763-3.623c0.158,0.779,0.401-0.452,0.474,0.077l-0.751-2.31
				c-0.027-0.553,0.291-0.124,0.18-0.924c-0.098,0.043-0.165-0.306-0.249-0.547c0.039-0.21-0.132-2.303,0.229-2.549
				c0.138-0.248,0.092,0.901,0.212,0.285c-0.022-1.021-0.147-1.065-0.171-2.088l0.048-0.021c0.043-0.675-0.19-1.987-0.379-1.251
				c-0.004,0.47,0.216-0.182,0.122,0.517c-0.22-0.474-0.301-1.661-0.322-2.685c0.064,0.348,0.162,0.305,0.268,0.443
				c-0.308-1.371-0.4-2.827-0.533-4.362c-0.174-0.022,0.32,0.569,0.23,0.797c0.228-1.971-0.369-4.063-0.027-5.702
				c0.032,0.268-0.246,0.145-0.198,0.126c0.015-0.949,0.268-0.906,0.171-1.523c0.147-0.063-0.053-0.777-0.103-1.413
				c-0.108-0.329,0.071-0.166,0.091,0.387c-0.131-0.885-0.381-4.431-0.18-6.479c-0.098,0.041-0.367-1.256-0.359-1.727l0.23,0.183
				c0.134-0.43-0.03-1.577,0.165-1.656c-0.284-1.004,0.262,3.872,0.039,2.512c0.188-0.354-0.376-1.894-0.063-1.603
				c-0.016-0.945-0.276-1.86-0.066-2.763c-0.036,0.261,0.321,0.765,0.301,0.003c-0.047-1.345-0.111-0.382-0.192-1.473l-0.097-0.683
				c-0.223-0.043,0.024-1.201-0.222-0.701c0.183-0.166-0.122-1.952,0.248-1.815l0.292,0.187c-0.024-0.581-0.311-0.951-0.441-1.406
				c0.026-0.077,0.084-0.229,0.131-0.2c-0.446-0.092,0.031-1.387-0.316-2.076c0.148-1.218,0-3.094,0.274-3.67
				c-0.139-0.936-0.303-1.789-0.212-2.857c0.043,0.213,0.057,0.503,0.153,0.563c0.128-0.671,0.01-0.835-0.065-1.448
				c0.067,0.137,0.254-1.342,0.408-2.089c-0.137-0.929-0.375-0.607-0.522-0.7c0.436-0.853-0.295-2.626,0.098-3.694
				c0.062,0.323,0.222,1.358,0.329,0.582c0.435-0.853-0.332-1.713-0.127-3.084l-0.363,0.338c0.223-0.613-0.221-2.017,0.151-1.88
				c-0.133-0.458,0.114-1.619-0.241-1.464c0.301-2.254-0.234-5.475,0.387-6.864c-0.064-0.323-0.014-1.129-0.194-0.962
				c-0.191,0.538,0.151,0.748,0.02,0.949c-0.015-0.29-0.113-0.352-0.163-0.382c0.072-0.7,0.09-1.251,0.395-0.593
				c0.199-1.56-0.625-1.601-0.513-3.584c0.149,0.088,0.203-0.063,0.171-0.643l-0.267-1.097c0.042-1.282,0.326-0.733,0.574-0.767
				c-0.052-0.685-0.052-1.522-0.241-1.832l0.302-0.835c-0.218,0.61-0.158-0.562-0.223-0.882l0.064,0.32
				c0.105-0.126,0.029-0.918-0.007-1.32c-0.153,0.099-0.205,0.908-0.244,1.349c-0.114-0.347-0.096-0.893-0.231-1.355
				c0.246,0.151,0.159-1.119,0.177-1.663c0.045-0.625-0.228-0.702-0.222-0.884c0.126-0.019,0.008-1.02,0.192-0.536
				c0.044,0.213-0.117,0.489,0,0.839c0.089-0.413,0.311-0.368,0.138-1.221c-0.13-0.641-0.48,0.172-0.342-1.049
				c0.065,0.319,0.164,0.376,0.254,0.625l0.112-1.146l-0.223-0.046c0.055-0.155,0.076-0.049,0.104-0.119
				c-0.239-0.338-0.095-1.745-0.362-2c-0.031-0.576,0.138-1.218,0.156-1.769l0.021,0.106c0.122-0.676,0.024-1.569-0.134-2.132
				l0.049,0.028c0.013-0.367-0.034-1.235-0.171-1.695c0.156-0.93,0.836-0.326,0.543-1.349c-0.021-0.942-0.428-1.468-0.565-1.087
				c0.125-1.696-0.303-3.611,0.005-5.188c-0.096-0.242-0.148-0.087-0.214-0.588c0.022-2.487-0.402-5.242-0.017-7.231
				c0.112,0.717,0.224,0.042,0.35,0.024c-0.215-0.59,0.188-0.721-0.159-0.925c-0.2,0.064-0.299,0.007-0.361,0.708
				c-0.147-1.48-0.207-3.735-0.042-4.562c-0.082,0.414-0.151,0.096-0.221-0.226c0.324,0.098,0.343-0.998,0.208-1.822l-0.198-0.11
				l0.187-0.545c-0.071-0.316-0.419-0.339-0.253-1.165c0.075-0.046,0.151-0.096,0.203-0.248c-0.183-0.851-0.486-2.05-0.345-2.983
				l0.265-0.769c-0.042-0.396-0.231-1.06-0.294-0.358c0.13-1.591,0.124-2.612,0.358-3.123c-0.646-2.712-0.859-6.669-0.957-9.843
				l0.15,0.09c0.099-0.858-0.275-0.434-0.2-1.032c0.152,0.27,0.275-0.661,0.475,0.001c0.101-1.226-0.323-1.562-0.424-2.351
				c-0.197-0.113,0.151,0.633-0.1,0.489c-0.074-0.133,0.076-1.693-0.223-1.87c0.101-0.311,0.325-0.081,0.45,0.079l-0.174-0.739
				c0.299-0.926,0.698,2.051,1.075,1.076l-0.076-0.684c0.275-0.67,0.424,1.802,0.452,0.073c-0.177-0.743-0.626-1.363-0.726-0.692
				c-0.149-1.554-0.725-0.691-0.774-2.366c0.15-0.464,0.1,1.338,0.325,1.005c0.199-0.799-0.201-1.575-0.15-2.281
				c-0.075,0.784-0.397,0.139-0.474-0.363c0.1-0.856,0.3,0.542,0.277-0.666c-0.177-0.191-0.352-1.294-0.426-0.33
				c-0.4-0.419,0.05-1.259-0.273-1.901c0.25-0.405,0.673,1.213,0.748-0.119c-0.248,0.223-0.422-1.617-0.773-0.899
				c0.051-0.522,0.251-0.587,0.426-0.217c0.126-0.748-0.55-1.776-0.049-2.044l-0.274-0.242c0.075-0.237,0.125-0.572,0.251-0.958
				c-0.024-0.653-0.45-2.087-0.05-2.048c-0.05-0.207-0.098-1.701-0.348-1.111c-0.126,0.937,0.248,1.057-0.101,1.593
				c0.274-0.672-0.099-1.336-0.224-1.866l0.15-0.096c-0.075-0.316-0.073-1.053-0.249-1.244c0.099,0.241,0.198,0.107,0.224-0.148
				l-0.249-0.323c-0.174-1.29,0.398-0.328,0.274-1.585l0.224,0.949c-0.048-0.208,0.152-0.649,0.052-1.25
				c-0.224-0.223-0.5-0.649-0.675-0.842c-0.125-0.706,0.228-0.333-0.041-1.014l0.315,0.896c0.082,0.134,0.324-0.636,0.241-1.577
				c-0.119-0.599-0.497-1.511-0.543-0.556c-0.039-0.471,0.042-1.141,0.226-0.777c-0.153-1.065-0.219,0.157-0.42-0.755
				c0.114-0.387,0.229-1.579,0.383-2.306l0.429,0.936l-0.045-0.642c0.348,0.809,0.187-0.441,0.523,0.005
				c0.014-0.444-0.128-0.969-0.238-1.388c-0.384,1.327-0.769-1.379-1.19-0.964c-0.3-1.745,0.957-1.202,0.081-2.969
				c-0.084,0.312-0.507-0.517-0.266,0.576c-0.064-1.097-0.517-0.698-0.467-2.003c0.278,0.935,0.34-1.071,0.743,0.28
				c-0.155-0.076-0.032,0.782,0.031,0.989c0.123-0.467,0.453,0.049,0.338-1.071c-0.112-0.679-0.216-1.616-0.432-1.454
				c-0.249,0.054,0.134,1.039-0.165,0.629c-0.228-1.351,0.135-1.62-0.374-2.134c0.129,0.856-0.112,1.098-0.286,1.101l-0.208-0.986
				l0.188,0.175c-0.06-1.619-0.356-0.441-0.486-2l0.248-0.767c0.326,0.339,0.128,2.277,0.561,1.948
				c-0.096-1.013-0.368-1.323-0.356-2.289l0.172,0.702c-0.025-0.365,0.547-0.792,0.026-2.194c-0.224-0.729-0.188-0.179-0.362-0.178
				c-0.233-1.62-0.471-2.081-0.607-3.129c0.36,0.179-0.162-1.861,0.305-0.738c-0.147,0.558,0.135,2.906,0.523,3.444
				c0.334-0.636,0.087,1.282,0.532,1.583c-0.137-1.302,0.264-1.282,0.499-1.521c-0.022-0.363-0.171-0.702-0.235-0.913
				c-0.261-0.126-0.204,0.346-0.451,0.401c-0.102-1.458-0.384-2.847-0.705-3.626c0.069-0.5,0.328-0.372,0.412,0.202
				c-0.253-1.726-0.415-3.582-0.514-5.236c-0.272,1.09-0.304-1.81-0.556-1.05c0.033,0.854-0.191,1.666-0.414,1.188
				c-0.032-0.554,0.176,0.001,0.236-0.237c-0.292-0.676,0.211-1.098-0.215-1.73c0.33,1.515,0.522,0.243,0.87,0.487
				c-0.322-1.1,0.228,0.023,0.081-1.091c-0.293-1.096-0.707-2.445-0.982-3.676c0.018-1.617-0.751-3.959-1.013-5.363
				c0.02-0.765,0.459-0.331,0.373-1.138c-0.179-0.934-0.248,0.761-0.343-0.652l0.094,0.122c-0.174-0.403-0.205-2.583-0.763-2.918
				l0.446,0.371c-0.006-0.266-0.131-0.492-0.205-0.701c0.122-0.03,0.187-0.349,0.334,0.061c0.135-0.897-0.349-1.789-0.438-2.731
				l-0.161,0.634c-0.315-1.6-0.312-2.691-0.41-4.266l0.223,0.039l-0.154-0.933c0.22,0.224,0.34-0.627,0.149-1.122l0.596,2.393
				c-0.116,0.673-0.283-0.712-0.493-0.286c-0.22,0.371-0.014,1.814,0.233,2.023c-0.034-0.552-0.085-0.573-0.21-0.995
				c0.289-0.204,0.365,0.631,0.614,1.021c-0.043-0.286,0.007-0.699-0.097-0.753c0.209,0.55,0.292,1.11,0.399,2.042
				c-0.187-0.618-0.153,0.367-0.266,0.138c0.275,0.043,0.441,0.922,0.565,2.083c-0.17,0.87,0.512,2.129,0.688,3.472
				c-0.375-0.492-0.716-1.145-0.947-1.942c-0.003,0.864,0.148,0.936,0.17,1.799c0.277,0.371,0.64,0.604,0.963,1.671l-0.188,0.097
				c0.284,0.97,0.576,0.912,0.763,2.183c0.326,2.172,0.716,4.412,0.98,6.077l-0.191,0.094c0.546,0.867,0.59,3.106,0.889,4.321
				c0.028,2.142,0.675,4.586,0.442,5.711c0.565,3.732,1.118,6.984,1.426,10.89l-0.36-0.625c0.287,0.675-0.123,0.471-0.009,1.151
				c0.153-0.811,0.401,0.917,0.63,1.382c-0.027,1.752,0.376,3.966,0.696,5.498l-0.198,0.076c0.477,1.533,0.344,3.428,0.339,5.368
				c-0.074,0.227-0.249,0.587-0.201,1.165c0.374,1.035,0.375,1.587,0.648,3.121c0.05,1.128,0.05,2.963-0.027,4.115
				c0.648,4.22,0.544,8.566,1.017,12.964l-0.224,0.328c0.698,4.256,0.488,9.531,0.811,13.174l-0.416-0.34
				c-0.096,1.148,0.175,2.605,0.457,2.304c-0.095,1.152,0.272,2.859-0.043,3.599c-0.044,1.174,0.227,1.43,0.307,2.404
				c-0.092,2.353-0.034,3.223,0.101,5.435l0.011-0.55c-0.096-0.24-0.27-0.257-0.281,0.294c0.135,0.824-0.029,3.042,0.436,2.207
				c-0.219,2.37,0.374,5.508,0.056,7.817c0.128-0.198,0.168,0.382,0.265,0.623c0.065,2.075-0.152,4.261,0.086,5.911
				c-0.062,0.33-0.233-0.521-0.236,0.324c0.057,0.499,0.174,0.006,0.256,0.622c0.292,3.357-0.166,6.81-0.062,9.863
				c0.329,5.429,0.273,11.099,0.385,16.303l-0.099-0.058c0.403,1.739-0.339,4.092,0.226,5.478c-0.091,0.413-0.037,1.573-0.227,1.27
				c0.27,1.386-0.23,3.886,0.113,5.891c0.008-0.184-0.012-0.291-0.055-0.503c-0.207,2.028,0.096,3.814-0.089,5.954
				c-0.043-0.216-0.075-0.611-0.173-0.675c-0.184,0.828,0.421,1.957-0.048,2.411c0.006,0.474,0.238,0.337,0.223,0.046
				c-0.162,4.683,0.161,9.679,0.291,14.552c-0.258,3.488-0.792,0.215-0.422,2.965c-0.089,0.226,0.181,0.163,0.083,0.2
				c0.139,1.064-0.515,1.662-0.264,2.399c0.287-0.306,0.166,0.491,0.341,0.512c-0.173,2.134-0.431,2.564-0.2,4.246l-0.153-0.125
				c0.443,1.971,0.228,4.259,0.735,5.92c0.214,10.878,0.631,21.3,1.009,31.896c0.167,10.481,0.8,20.725,1.039,31.367
				c-0.263,2.493-0.33,2.733,0.072,5.388c-0.074-0.104-0.104-0.27-0.149-0.087c0.339,0.108,0.198,1.876,0.531,2.099
				c0.325,3.835,1.036,7.412,1.432,11.547c-0.087-0.655-0.38-0.955-0.296-0.178l0.273,0.794l-0.081,0.142
				c0.091,0.529,0.299,1.102,0.36,0.54c0.947,10.374-0.25,20.648-2.486,30.548c-0.618,2.332-1.345,5.683-2.167,8.19
				c-2.808,7.242-5.991,13.369-7.932,20.769C20.594,381.603,20.096,380.418,20.921,377.326z"/>
			<path d="M18.686,40.517c-0.215,0.243-0.349,1.118-0.523,0.412C18.327,40.847,18.55,40.417,18.686,40.517z"/>
			<path d="M20.148,64.044c0.053,0.024-0.022,0.336-0.039,0.412c-0.05-0.281-0.221-0.527-0.167-0.764
				C19.992,63.978,20.063,63.923,20.148,64.044z"/>
			<path d="M20.727,70.041c-0.154-0.076-0.405-1.356-0.503-2.117L20.727,70.041z"/>
			<path d="M20.738,75.726c-0.068,0.497-0.15,0.371-0.22-0.281C20.59,75.389,20.653,75.6,20.738,75.726z"/>
			<path d="M21.112,76.086c0.056,0.465-0.003,0.707-0.061,0.942C21.175,76.998,20.852,75.958,21.112,76.086z"/>
			<path d="M21.967,88.275c0.033,0.289,0.201,0.909,0.06,1.193C22.117,89.155,21.737,88.069,21.967,88.275z"/>
			<path d="M22.605,93.885c0.004,0.182-0.017,0.258,0.039,0.467c-0.041,0.338-0.174-0.008-0.208-0.289L22.605,93.885z"/>
			<polygon points="25.978,197.375 25.903,196.76 26.048,196.849 			"/>
			<path d="M26.235,242.791c0.096,0.613-0.134,0.429-0.154,0.531C26.06,242.768,26.261,243.526,26.235,242.791z"/>
			<polygon points="27.424,267.27 27.415,267.082 27.715,267.137 			"/>
		</g>
	</g>
</g>
</svg>
