<?xml version="1.0" encoding="utf-8"?>
<!-- Generator: Adobe Illustrator 12.0.0, SVG Export Plug-In  -->
<!DOCTYPE svg PUBLIC "-//W3C//DTD SVG 1.1//EN" "http://www.w3.org/Graphics/SVG/1.1/DTD/svg11.dtd" [
	<!ENTITY ns_flows "http://ns.adobe.com/Flows/1.0/">
	<!ENTITY ns_svg "http://www.w3.org/2000/svg">
	<!ENTITY ns_xlink "http://www.w3.org/1999/xlink">
]>
<svg  version="1.1" xmlns="&ns_svg;" xmlns:xlink="&ns_xlink;" xmlns:a="http://ns.adobe.com/AdobeSVGViewerExtensions/3.0/"
	 width="98" height="87" viewBox="-0.159 -0.628 98 87" enable-background="new -0.159 -0.628 98 87" xml:space="preserve">
<defs>
</defs>
<path stroke="#000000" stroke-linecap="round" stroke-linejoin="round" d="M21.67,43.932c-2.754-1.186-5.255-3.802-7.315-5.982
	c-1.494-1.583-4.688-4.333-5.056-6.394c2.306-0.119,5.436,1.418,7.661,2.103c3.378,1.044,6.131,2.877,9.63,3.481
	c6.139,1.063,12.829,1.518,19.221,1.193c-0.568-1.167-2.277-1.713-3.35-2.584c-5.295-4.336-5.286-15.756-2.348-21.33
	C44.006,7.017,53.772,0.431,62.169,0.5c4.723,0.043,9.422,1.821,13.424,4.252c4.404,2.684,6.392,5.89,6.392,11.156
	c0,2.504,1.061,6.443-1.271,8.239c2.569-5.209,7.879-7.932,12.806-10.514c-2.888,2.636-7.216,7.167-7.75,11.195
	c3.522-2.886,7.361-3.724,11.082-6.195c-3.703,4.273-9.363,7.213-10.796,13.101c-1.271,5.212-4.216,11.389-7.484,15.667
	c-4.422,5.8-8.502,10.835-15.191,14.28c-3.101,1.577-6.074,4.013-9.393,5.046c-2.875,0.899-5.84,0.222-8.752-0.103
	c0.193,2.455,0.866,5.466,0.399,7.91c-0.284,1.434-1.945,3.399-2.75,4.616c-2.024,3.057-4.627,5.799-8.452,6.278
	c-3.535,0.44-7.19-1.396-8.876-4.502c-2.046-3.803-2.242-7.039-0.056-10.965c0.905-1.631,1.204-3.531,2.119-5.174
	c0.439-0.776,1.006-1.222,1.552-1.879c0.173-0.227,1.321-2.601,1.014-2.488c-1.566,0.652-3.373,1.453-4.882,2.267
	c-3.89,2.123-8.445,2.979-12.847,2.827C7.95,65.382,2.393,63.153,0.5,58.931c1.912-0.136,4.14,0.329,5.977-0.183
	c1.583-0.453,3.228-1.648,4.652-2.467c2.225-1.254,6.757-2.821,8.167-4.824c-5.132-3.076-10.931-4.433-15.958-7.321
	c6.352,0.041,12.703,0.789,18.955,0.386c-0.397-0.413-1.035-0.873-1.482-1.024"/>
</svg>
